<?xml version="1.0" encoding="UTF-8" standalone="no"?>
<!-- Created with Inkscape (http://www.inkscape.org/) -->

<svg
   xmlns:dc="http://purl.org/dc/elements/1.1/"
   xmlns:cc="http://creativecommons.org/ns#"
   xmlns:rdf="http://www.w3.org/1999/02/22-rdf-syntax-ns#"
   xmlns:svg="http://www.w3.org/2000/svg"
   xmlns="http://www.w3.org/2000/svg"
   xmlns:sodipodi="http://sodipodi.sourceforge.net/DTD/sodipodi-0.dtd"
   xmlns:inkscape="http://www.inkscape.org/namespaces/inkscape"
   width="449.99976"
   height="624.99988"
   viewBox="0 0 119.06244 165.36456"
   version="1.1"
   id="svg8"
   sodipodi:docname="Outline Technology Logo_003.svg"
   inkscape:export-filename="C:\Users\cgino\bitmap.png"
   inkscape:export-xdpi="300"
   inkscape:export-ydpi="300"
   inkscape:version="0.92.4 (5da689c313, 2019-01-14)">
  <defs
     id="defs2" />
  <sodipodi:namedview
     id="base"
     pagecolor="#ffffff"
     bordercolor="#666666"
     borderopacity="1.0"
     inkscape:pageopacity="0.0"
     inkscape:pageshadow="2"
     inkscape:zoom="0.7"
     inkscape:cx="133.10212"
     inkscape:cy="-713.53991"
     inkscape:document-units="px"
     inkscape:current-layer="layer1"
     showgrid="false"
     borderlayer="false"
     showborder="false"
     inkscape:pagecheckerboard="true"
     units="px"
     fit-margin-top="0"
     fit-margin-left="0"
     fit-margin-right="0"
     fit-margin-bottom="0"
     inkscape:window-width="1280"
     inkscape:window-height="777"
     inkscape:window-x="-8"
     inkscape:window-y="-8"
     inkscape:window-maximized="1" />
  <metadata
     id="metadata5">
    <rdf:RDF>
      <cc:Work
         rdf:about="">
        <dc:format>image/svg+xml</dc:format>
        <dc:type
           rdf:resource="http://purl.org/dc/dcmitype/StillImage" />
        <dc:title />
      </cc:Work>
    </rdf:RDF>
  </metadata>
  <g
     inkscape:label="Layer 1"
     inkscape:groupmode="layer"
     id="layer1"
     transform="translate(-8.8826623,-88.168336)">
    <path
       style="opacity:1;fill:#004eba;fill-opacity:1;stroke:#000059;stroke-width:7.50000016;stroke-linecap:square;stroke-linejoin:miter;stroke-miterlimit:4;stroke-dasharray:none;stroke-dashoffset:0;stroke-opacity:1;paint-order:fill markers stroke"
       d="m 108.57227,693.71484 50,50 h 50 v -50 z"
       transform="matrix(0.26458334,0,0,0.26458334,0,30.299992)"
       id="rect859"
       inkscape:connector-curvature="0"
       inkscape:export-xdpi="300"
       inkscape:export-ydpi="300" />
    <path
       style="opacity:1;fill:#004eba;fill-opacity:1;stroke:#000059;stroke-width:1.98437509;stroke-linecap:square;stroke-linejoin:miter;stroke-miterlimit:4;stroke-dasharray:none;stroke-dashoffset:0;stroke-opacity:1;paint-order:fill markers stroke"
       d="m 68.413843,88.168336 a 39.687501,39.687501 0 0 0 -39.687501,39.687504 39.687501,39.687501 0 0 0 39.687501,39.6875 39.687501,39.687501 0 0 0 39.687497,-39.6875 39.687501,39.687501 0 0 0 -39.687497,-39.687504 z m 0,13.229164 A 26.458334,26.458334 0 0 1 94.872177,127.85584 26.458334,26.458334 0 0 1 68.413843,154.31417 26.458334,26.458334 0 0 1 41.955509,127.85584 26.458334,26.458334 0 0 1 68.413843,101.3975 Z"
       id="path838"
       inkscape:connector-curvature="0"
       inkscape:export-xdpi="300"
       inkscape:export-ydpi="300" />
    <path
       style="opacity:1;fill:#004eba;fill-opacity:1;stroke:#000059;stroke-width:7.49999988;stroke-linecap:square;stroke-linejoin:miter;stroke-miterlimit:4;stroke-dasharray:none;stroke-dashoffset:0;stroke-opacity:1;paint-order:fill markers stroke"
       d="M 75 325 L 75 375 L 200 375 L 200 625 L 250 625 L 250 375 L 375 375 L 375 325 L 250 325 L 200 325 L 75 325 z "
       transform="matrix(0.26458335,0,0,0.26458335,8.8826623,88.168336)"
       id="rect843"
       inkscape:export-xdpi="300"
       inkscape:export-ydpi="300" />
    <path
       style="opacity:1;fill:#004eba;fill-opacity:1;stroke:#000059;stroke-width:7.50000016;stroke-linecap:square;stroke-linejoin:miter;stroke-miterlimit:4;stroke-dasharray:none;stroke-dashoffset:0;stroke-opacity:1;paint-order:fill markers stroke"
       d="m 33.572266,618.71484 50,50 H 208.57227 v -50 z"
       transform="matrix(0.26458334,0,0,0.26458334,0,30.299992)"
       id="rect853"
       inkscape:connector-curvature="0"
       inkscape:export-xdpi="300"
       inkscape:export-ydpi="300" />
    <path
       id="path865"
       d="M 108.10134,213.84538 94.872177,227.07455 H 81.64301 v -13.22917 z"
       style="opacity:1;fill:#004eba;fill-opacity:1;stroke:#000059;stroke-width:1.98437509;stroke-linecap:square;stroke-linejoin:miter;stroke-miterlimit:4;stroke-dasharray:none;stroke-dashoffset:0;stroke-opacity:1;paint-order:fill markers stroke"
       inkscape:connector-curvature="0"
       inkscape:export-xdpi="300"
       inkscape:export-ydpi="300" />
    <path
       id="path867"
       d="M 127.9451,194.00163 114.71593,207.2308 H 81.64301 v -13.22917 z"
       style="opacity:1;fill:#004eba;fill-opacity:1;stroke:#000059;stroke-width:1.98437509;stroke-linecap:square;stroke-linejoin:miter;stroke-miterlimit:4;stroke-dasharray:none;stroke-dashoffset:0;stroke-opacity:1;paint-order:fill markers stroke"
       inkscape:connector-curvature="0"
       inkscape:export-xdpi="300"
       inkscape:export-ydpi="300" />
    <path
       style="opacity:1;fill:#ffffff;fill-opacity:1;stroke:#000000;stroke-width:1.98437512;stroke-linecap:square;stroke-linejoin:miter;stroke-miterlimit:4;stroke-dasharray:none;stroke-dashoffset:0;stroke-opacity:1;paint-order:fill markers stroke"
       d="m 16.820199,484.00385 13.229166,13.22917 h 13.229167 v -13.22917 z"
       id="rect859-9"
       inkscape:connector-curvature="0"
       inkscape:export-xdpi="300"
       inkscape:export-ydpi="300" />
    <path
       style="opacity:1;fill:#ffffff;fill-opacity:1;stroke:#000000;stroke-width:1.98437512;stroke-linecap:square;stroke-linejoin:miter;stroke-miterlimit:4;stroke-dasharray:none;stroke-dashoffset:0;stroke-opacity:1;paint-order:fill markers stroke"
       d="m 56.507628,358.3268 a 39.687502,39.687502 0 0 0 -39.687501,39.68751 39.687502,39.687502 0 0 0 39.687501,39.6875 39.687502,39.687502 0 0 0 39.687494,-39.6875 39.687502,39.687502 0 0 0 -39.687494,-39.68751 z m 0,13.22917 a 26.458334,26.458334 0 0 1 26.458335,26.45834 26.458334,26.458334 0 0 1 -26.458335,26.45833 26.458334,26.458334 0 0 1 -26.458335,-26.45833 26.458334,26.458334 0 0 1 26.458335,-26.45834 z"
       id="path838-9"
       inkscape:connector-curvature="0"
       inkscape:export-xdpi="300"
       inkscape:export-ydpi="300" />
    <path
       inkscape:connector-curvature="0"
       style="opacity:1;fill:#ffffff;fill-opacity:1;stroke:#000000;stroke-width:1.98437512;stroke-linecap:square;stroke-linejoin:miter;stroke-miterlimit:4;stroke-dasharray:none;stroke-dashoffset:0;stroke-opacity:1;paint-order:fill markers stroke"
       d="m 16.820198,444.31639 v 13.22917 h 33.072918 v 66.14583 H 63.122283 V 457.54556 H 96.195202 V 444.31639 H 63.122283 49.893116 Z"
       id="rect843-6"
       inkscape:export-xdpi="300"
       inkscape:export-ydpi="300" />
    <path
       style="opacity:1;fill:#ffffff;fill-opacity:1;stroke:#000000;stroke-width:1.98437512;stroke-linecap:square;stroke-linejoin:miter;stroke-miterlimit:4;stroke-dasharray:none;stroke-dashoffset:0;stroke-opacity:1;paint-order:fill markers stroke"
       d="M -3.0235532,464.1601 10.205614,477.38927 H 43.278532 V 464.1601 Z"
       id="rect853-8"
       inkscape:connector-curvature="0"
       inkscape:export-xdpi="300"
       inkscape:export-ydpi="300" />
    <path
       id="path865-8"
       d="M 96.195122,484.00385 82.965963,497.23302 H 69.736795 v -13.22917 z"
       style="opacity:1;fill:#ffffff;fill-opacity:1;stroke:#000000;stroke-width:1.98437512;stroke-linecap:square;stroke-linejoin:miter;stroke-miterlimit:4;stroke-dasharray:none;stroke-dashoffset:0;stroke-opacity:1;paint-order:fill markers stroke"
       inkscape:connector-curvature="0"
       inkscape:export-xdpi="300"
       inkscape:export-ydpi="300" />
    <path
       id="path867-6"
       d="m 116.03888,464.1601 -13.22917,13.22917 H 69.736795 V 464.1601 Z"
       style="opacity:1;fill:#ffffff;fill-opacity:1;stroke:#000000;stroke-width:1.98437512;stroke-linecap:square;stroke-linejoin:miter;stroke-miterlimit:4;stroke-dasharray:none;stroke-dashoffset:0;stroke-opacity:1;paint-order:fill markers stroke"
       inkscape:connector-curvature="0"
       inkscape:export-xdpi="300"
       inkscape:export-ydpi="300" />
  </g>
</svg>
