<?xml version="1.0" encoding="UTF-8" standalone="no"?>
<!-- Created with Inkscape (http://www.inkscape.org/) -->

<svg
   xmlns:dc="http://purl.org/dc/elements/1.1/"
   xmlns:cc="http://creativecommons.org/ns#"
   xmlns:rdf="http://www.w3.org/1999/02/22-rdf-syntax-ns#"
   xmlns:svg="http://www.w3.org/2000/svg"
   xmlns="http://www.w3.org/2000/svg"
   xmlns:sodipodi="http://sodipodi.sourceforge.net/DTD/sodipodi-0.dtd"
   xmlns:inkscape="http://www.inkscape.org/namespaces/inkscape"
   width="478.99713"
   height="537.86481"
   viewBox="0 0 126.73465 142.31007"
   version="1.1"
   id="svg8"
   inkscape:version="0.92.4 (5da689c313, 2019-01-14)"
   sodipodi:docname="Logo_001.svg.2019_05_19_23_08_01.0.svg"
   inkscape:export-filename="Outline Technology Logo_001.png"
   inkscape:export-xdpi="300"
   inkscape:export-ydpi="300">
  <defs
     id="defs2" />
  <sodipodi:namedview
     id="base"
     pagecolor="#ffffff"
     bordercolor="#666666"
     borderopacity="1.0"
     inkscape:pageopacity="0.0"
     inkscape:pageshadow="2"
     inkscape:zoom="0.5"
     inkscape:cx="53.650862"
     inkscape:cy="280.61972"
     inkscape:document-units="px"
     inkscape:current-layer="layer1"
     showgrid="false"
     units="px"
     inkscape:pagecheckerboard="true"
     showborder="false"
     inkscape:window-width="1280"
     inkscape:window-height="777"
     inkscape:window-x="-8"
     inkscape:window-y="-8"
     inkscape:window-maximized="1"
     fit-margin-top="0"
     fit-margin-left="0"
     fit-margin-right="0"
     fit-margin-bottom="0" />
  <metadata
     id="metadata5">
    <rdf:RDF>
      <cc:Work
         rdf:about="">
        <dc:format>image/svg+xml</dc:format>
        <dc:type
           rdf:resource="http://purl.org/dc/dcmitype/StillImage" />
        <dc:title></dc:title>
      </cc:Work>
    </rdf:RDF>
  </metadata>
  <g
     inkscape:label="Layer 1"
     inkscape:groupmode="layer"
     id="layer1"
     transform="translate(-30.853729,-171.83246)">
    <path
       style="color:#000000;font-style:normal;font-variant:normal;font-weight:normal;font-stretch:normal;font-size:medium;line-height:normal;font-family:sans-serif;font-variant-ligatures:normal;font-variant-position:normal;font-variant-caps:normal;font-variant-numeric:normal;font-variant-alternates:normal;font-feature-settings:normal;text-indent:0;text-align:start;text-decoration:none;text-decoration-line:none;text-decoration-style:solid;text-decoration-color:#000000;letter-spacing:normal;word-spacing:normal;text-transform:none;writing-mode:lr-tb;direction:ltr;text-orientation:mixed;dominant-baseline:auto;baseline-shift:baseline;text-anchor:start;white-space:normal;shape-padding:0;clip-rule:nonzero;display:inline;overflow:visible;visibility:visible;opacity:1;isolation:auto;mix-blend-mode:normal;color-interpolation:sRGB;color-interpolation-filters:linearRGB;solid-color:#000000;solid-opacity:1;vector-effect:none;fill:#000000;fill-opacity:1;fill-rule:nonzero;stroke:none;stroke-width:6.61458158;stroke-linecap:butt;stroke-linejoin:bevel;stroke-miterlimit:4;stroke-dasharray:none;stroke-dashoffset:0;stroke-opacity:1;color-rendering:auto;image-rendering:auto;shape-rendering:auto;text-rendering:auto;enable-background:accumulate"
       d="m 103.00385,171.83246 c -1.35426,0 -2.70863,0.51652 -3.741894,1.54978 -1.135324,1.1361 -1.692934,2.72685 -1.516186,4.32324 l -56.593964,56.59397 -5.09e-4,24.75818 -10.297568,-5.2e-4 10e-7,9.3555 7.82278,7.82278 h 59.18863 l 45.24169,-45.24116 -18.96474,-18.96422 -4.67723,4.67723 14.28749,14.28699 -28.06339,28.06288 H 95.391392 l 2e-6,-22.01932 30.846176,-30.8467 c 1.59501,0.1768 3.18402,-0.37969 4.32015,-1.51309 2.06653,-2.06652 2.06653,-5.41673 0,-7.48326 -2.06653,-2.06652 -5.41725,-2.06652 -7.48377,0 -1.13532,1.13612 -1.69294,2.72635 -1.5162,4.32273 l -32.780944,32.78198 -10e-4,24.75766 H 88.115381 71.578925 l 3e-6,-22.01932 42.752422,-42.75192 c 1.59526,0.17702 3.18489,-0.37949 4.32118,-1.51309 2.06653,-2.06651 2.06653,-5.41674 1e-5,-7.48326 -2.06652,-2.06652 -5.41726,-2.06652 -7.48378,0 -1.13533,1.13611 -1.69295,2.72635 -1.51619,4.32274 L 64.964341,234.301 v 24.75663 H 48.427885 47.766427 l 10e-7,-22.01984 54.659192,-54.65868 c 1.59501,0.17678 3.18401,-0.37972 4.32014,-1.51309 2.06655,-2.06652 2.06654,-5.41727 0,-7.48378 -1.03326,-1.03326 -2.38763,-1.54978 -3.74188,-1.54978 z m 0,2.64584 c 0.67713,0 1.35406,0.25851 1.87068,0.77514 1.03326,1.03326 1.03327,2.70863 1e-5,3.74189 -1.03325,1.03327 -2.70812,1.03327 -3.74137,0 -1.03326,-1.03326 -1.03327,-2.70863 -1e-5,-3.74189 0.51663,-0.51663 1.19356,-0.77515 1.87069,-0.77514 z m 11.90677,11.90676 c 0.67712,0 1.35404,0.25852 1.87068,0.77515 1.03326,1.03326 1.03326,2.70864 0,3.74189 -1.03327,1.03327 -2.70812,1.03327 -3.74137,0 -1.03329,-1.03326 -1.03328,-2.70863 -1e-5,-3.74189 0.51664,-0.51663 1.19357,-0.77515 1.8707,-0.77515 z m -14.58051,1.83245 -4.677234,4.67724 3.487641,3.48764 4.676723,-4.67775 z m 26.48573,10.07328 c 0.67712,0 1.35456,0.258 1.8712,0.77464 1.03326,1.03326 1.03325,2.70863 -1e-5,3.74189 -1.03326,1.03326 -2.70862,1.03326 -3.74189,0 -1.03325,-1.03326 -1.03326,-2.70863 0,-3.74189 0.51664,-0.51664 1.19356,-0.77463 1.8707,-0.77464 z m -14.57948,1.83297 -4.67723,4.67775 3.48712,3.48661 4.67724,-4.67723 z m -66.944237,82.72724 3.13573,3.13575 0.492994,0.49299 h 38.699957 l 0.494544,-0.49456 3.134177,-3.13418 z m 10.24227,10.24226 12.73669,12.7362 12.736178,-12.73619 z"
       id="path5983"
       inkscape:connector-curvature="0" />
    <circle
       r="0"
       cx="162.47"
       cy="-214.54997"
       transform="scale(1,-1)"
       id="ellipse6017"
       style="opacity:1;fill:#ffffff;fill-opacity:1;stroke-width:3.34915614;stroke-linecap:butt;stroke-linejoin:bevel;stroke-miterlimit:4;stroke-dasharray:none" />
    <text
       xml:space="preserve"
       style="font-style:normal;font-variant:normal;font-weight:normal;font-stretch:normal;font-size:1.41111112px;line-height:1.25;font-family:OCRA;-inkscape-font-specification:'OCRA, Normal';font-variant-ligatures:normal;font-variant-caps:normal;font-variant-numeric:normal;font-feature-settings:normal;text-align:start;letter-spacing:0px;word-spacing:0px;writing-mode:lr-tb;text-anchor:start;fill:#000000;fill-opacity:1;stroke:none;stroke-width:0.26458332"
       x="-168.42307"
       y="276.15161"
       id="text1000"
       transform="rotate(-45)"><tspan
         sodipodi:role="line"
         id="tspan998"
         x="-168.42307"
         y="276.15161"
         style="font-style:normal;font-variant:normal;font-weight:bold;font-stretch:normal;font-size:8.81944466px;font-family:sans-serif;-inkscape-font-specification:'sans-serif Bold';stroke-width:0.26458332">OUTLINE TECHNOLOGY</tspan></text>
  </g>
</svg>
